<?xml version="1.0" standalone="no"?>
<!DOCTYPE svg PUBLIC "-//W3C//DTD SVG 20010904//EN"
 "http://www.w3.org/TR/2001/REC-SVG-20010904/DTD/svg10.dtd">
<svg version="1.0" xmlns="http://www.w3.org/2000/svg"
 width="500.000000pt" height="500.000000pt" viewBox="0 0 500.000000 500.000000"
 preserveAspectRatio="xMidYMid meet">

<g transform="translate(0.000000,500.000000) scale(0.100000,-0.100000)"
fill="#000000" stroke="none">
<path d="M2310 4994 c-114 -11 -335 -48 -437 -75 -248 -63 -530 -190 -744
-331 -168 -112 -261 -188 -404 -333 -386 -388 -619 -861 -701 -1420 -25 -166
-25 -504 0 -670 83 -565 316 -1033 711 -1431 376 -377 850 -617 1395 -706 194
-31 546 -31 740 0 545 89 1016 327 1395 707 384 383 622 856 707 1400 29 186
31 521 4 700 -83 569 -319 1041 -720 1440 -373 371 -854 613 -1381 695 -135
21 -450 34 -565 24z m-752 -1204 c67 -29 2201 -2162 2231 -2230 65 -144 -20
-317 -174 -351 -76 -17 -143 -1 -210 50 -28 21 -528 518 -1111 1105 -846 851
-1062 1074 -1076 1108 -36 92 -18 185 52 260 79 86 179 106 288 58z m2121 1
c45 -23 98 -81 118 -129 8 -19 14 -60 14 -92 1 -101 -20 -131 -241 -354 l-200
-202 200 -199 c203 -202 233 -242 246 -321 15 -99 -59 -224 -154 -261 -63 -24
-145 -22 -203 6 -58 28 -651 619 -672 671 -26 63 -30 115 -12 177 16 56 26 67
328 371 295 297 337 333 397 353 38 13 136 2 179 -20z m-2158 -997 c52 -15 74
-36 643 -602 467 -466 593 -597 612 -637 56 -118 7 -266 -110 -328 -63 -33
-176 -31 -236 5 -69 41 -1195 1174 -1214 1222 -20 48 -21 146 -2 191 33 78
100 136 181 156 47 11 68 10 126 -7z m41 -1027 c52 -30 188 -169 212 -216 10
-18 20 -56 23 -85 14 -139 -83 -261 -216 -273 -105 -10 -142 7 -255 116 -56
55 -107 113 -117 136 -25 53 -25 156 0 210 23 51 100 120 149 134 61 17 155 7
204 -22z"/>
</g>
</svg>
